<?xml version="1.0" encoding="UTF-8"?>
<!DOCTYPE svg PUBLIC "-//W3C//DTD SVG 1.1//EN" "http://www.w3.org/Graphics/SVG/1.1/DTD/svg11.dtd">
<!-- Creator: CorelDRAW X7 -->
<svg xmlns="http://www.w3.org/2000/svg" xml:space="preserve" width="292px" height="44px" version="1.1" style="shape-rendering:geometricPrecision; text-rendering:geometricPrecision; image-rendering:optimizeQuality; fill-rule:evenodd; clip-rule:evenodd"
viewBox="0 0 29200 4400"
 xmlns:xlink="http://www.w3.org/1999/xlink">
 <defs>
  <style type="text/css">
   <![CDATA[
    .fil2 {fill:#FEFEFE}
    .fil8 {fill:#FAFBFB}
    .fil7 {fill:#F8D09A}
    .fil0 {fill:#F7B702}
    .fil3 {fill:#BD2324}
    .fil4 {fill:#E69D1B}
    .fil5 {fill:#E7BD88}
    .fil1 {fill:#DEDCDE}
    .fil6 {fill:#1C1B17}
    .fil9 {fill:#1C1B17;fill-rule:nonzero}
   ]]>
  </style>
 </defs>
 <g id="Layer_x0020_1">
  <metadata id="CorelCorpID_0Corel-Layer"/>
  <g id="_380960880">
   <g>
    <path class="fil0" d="M947 3546c-1,3 -2,7 -2,12 1,-8 2,-12 2,-12z"/>
    <path class="fil1" d="M1358 3376c80,71 214,76 214,76 -372,106 -504,-266 -504,-266 331,231 690,0 690,0 -151,206 -400,190 -400,190zm1093 -1600c0,0 142,158 121,314 0,0 -45,-151 -170,-241 23,142 14,253 -9,339 127,155 109,360 109,360 -23,-125 -97,-228 -138,-277 -55,122 -136,167 -136,167 140,380 -106,534 -106,534 -3,61 -17,96 -28,115 18,56 10,127 -31,207 0,0 57,-201 -100,-273 -107,-49 -251,3 -385,-18 -165,57 -289,17 -335,-3 -140,29 -293,-30 -405,21 -158,72 -101,273 -101,273 0,0 -111,-83 -91,-269 0,0 -263,-129 -144,-566 0,0 -55,-20 -73,-88 0,0 -100,49 -130,177 0,0 -73,-167 50,-440 0,0 -97,23 -172,89 0,0 -40,-140 79,-328 -150,162 -168,360 -176,454 0,0 86,-102 208,-151 0,0 -19,32 -46,87 -141,314 -93,723 -93,723 65,-159 221,-243 221,-243 0,0 0,0 0,0 -6,16 -124,325 -62,626 13,66 46,129 97,177 35,32 63,45 63,45 32,-140 160,-230 160,-230 -2,6 -4,11 -5,17 -23,72 -100,357 45,560 105,113 257,123 257,123 -84,-239 22,-511 22,-511 27,717 453,746 453,746 0,0 426,-29 453,-746 0,0 75,329 -90,590 660,-106 409,-779 409,-779 69,151 100,276 104,378 413,-340 154,-996 154,-996 216,197 231,365 231,365 164,-412 -164,-940 -164,-940 122,50 223,159 223,159 -17,-209 -125,-404 -222,-540 -14,-6 -30,-9 -47,-7z"/>
    <path class="fil2" d="M2036 1940c0,0 -31,25 -81,54 4,30 -24,62 -67,76 -32,11 -63,9 -84,-3 -26,10 -52,18 -80,24 19,69 312,83 312,-151z"/>
    <path class="fil3" d="M737 1029c62,0 147,-40 174,-109 9,-24 10,-44 5,-61 -16,45 -48,92 -113,110 0,0 41,-96 -5,-147 -90,31 -173,70 -245,114 43,57 109,93 184,93z"/>
    <path class="fil4" d="M431 1253l-165 -610c-18,-10 -36,-20 -54,-32l173 660c13,-6 29,-12 46,-18z"/>
    <path class="fil5" d="M2113 1726c195,37 185,252 185,252 -83,-127 -218,-54 -218,-54 -11,312 -289,253 -289,253 81,45 165,32 165,32 -248,110 -370,-105 -370,-105 -51,-2 -83,41 -83,41 13,-64 56,-80 56,-80 -67,-27 -73,-106 -73,-106 243,118 394,-278 627,-233zm-1611 504c147,213 249,217 158,376 0,0 25,-70 -38,-132 0,0 -105,193 12,352 91,-197 408,-158 408,-158 -27,-24 -49,-75 -60,-102 -31,-9 -78,-14 -144,4 0,0 57,-79 186,-83 0,0 38,-84 176,-93 0,0 160,-253 15,-290 0,0 -123,215 -370,105 0,0 84,13 164,-32 0,0 -277,59 -288,-253 0,0 -135,-73 -219,54 0,0 -10,-215 186,-252 233,-45 383,351 626,233 0,0 -6,79 -72,106 0,0 174,46 37,375 -3,7 -6,14 -9,21 0,0 36,33 39,95 0,0 -25,-59 -69,-83 0,0 -119,-25 -147,83 -28,107 139,150 168,130 0,0 34,85 139,86 105,-1 140,-86 140,-86 29,20 195,-23 167,-130 -28,-108 -146,-83 -146,-83 -45,24 -69,83 -69,83 3,-62 39,-95 39,-95 -47,-98 -53,-272 -53,-272 21,148 97,233 97,233 120,-24 186,101 186,101 138,-17 202,47 202,47 -129,-36 -187,17 -187,17 -26,52 -57,84 -87,105 393,-65 451,165 451,165 158,-163 39,-383 39,-383 -63,62 -39,132 -39,132 -90,-159 12,-163 158,-376 125,-181 39,-491 4,-597 -147,-43 -416,-88 -902,-88 -486,0 -755,45 -902,88 -35,106 -120,416 4,597z"/>
    <path class="fil3" d="M1829 784c0,136 105,245 235,245 0,0 1,0 2,0 33,0 58,-15 73,-35 -84,23 -160,-36 -160,-36 89,-9 120,-62 131,-93 -2,-1 -4,-3 -7,-4 -83,-36 -175,-67 -274,-90 0,5 0,9 0,13z"/>
    <path class="fil1" d="M742 3024c56,-66 161,-95 288,-72 163,30 272,-18 327,-55l0 -93c-20,-3 -44,-12 -70,-29l0 0c0,0 -589,-164 -549,200 0,0 -2,23 4,49z"/>
    <path class="fil4" d="M2363 715c5,22 7,46 7,69 0,173 -137,314 -306,314 -170,0 -307,-141 -307,-314 0,-75 26,-146 73,-203 -205,-101 -364,-330 -430,-436l0 824 -137 -542c0,0 -119,104 -292,154 47,57 73,128 73,203 0,173 -138,314 -307,314 -169,0 -307,-141 -307,-314 0,-23 3,-47 8,-69 -29,-9 -69,-23 -115,-43l154 566c158,-47 436,-91 923,-91 719,0 982,96 1076,155l184 -743c-110,91 -234,137 -297,156z"/>
    <path class="fil2" d="M765 1940c0,234 292,220 311,151 -27,-6 -54,-14 -79,-24 -21,12 -53,14 -84,3 -43,-14 -71,-46 -68,-76 -50,-29 -80,-54 -80,-54z"/>
    <path class="fil4" d="M518 1291c-23,6 -44,12 -62,19l0 272c18,-6 39,-12 62,-18l0 -273z"/>
    <path class="fil1" d="M1513 2775l0 0c-25,17 -50,26 -70,29l0 93c56,37 164,85 327,55 127,-23 232,6 289,72 5,-26 3,-49 3,-49 41,-364 -549,-200 -549,-200z"/>
    <path class="fil4" d="M2465 1632l0 -261c-31,-28 -223,-163 -1065,-163 -419,0 -677,33 -834,70l0 274c167,-37 428,-68 834,-68 692,0 962,89 1065,148z"/>
    <path class="fil6" d="M1804 2067c21,12 52,14 84,3 43,-14 71,-46 67,-76 50,-29 81,-54 81,-54 0,234 -293,220 -312,151 28,-6 54,-14 80,-24zm-245 -2c0,0 -43,16 -56,80 0,0 32,-43 83,-41 0,0 122,215 370,105 0,0 -84,13 -165,-32 0,0 278,59 289,-253 0,0 135,-73 218,54 0,0 10,-215 -185,-252 -233,-45 -384,351 -627,233 0,0 6,79 73,106z"/>
    <path class="fil6" d="M2476 1302c-94,-59 -357,-155 -1076,-155 -487,0 -765,44 -923,91l-154 -566c46,20 86,34 115,43 -5,22 -8,46 -8,69 0,173 138,314 307,314 169,0 307,-141 307,-314 0,-75 -26,-146 -73,-203 173,-50 292,-154 292,-154l137 542 0 -824c66,106 225,335 430,436 -47,57 -73,128 -73,203 0,173 137,314 307,314 169,0 306,-141 306,-314 0,-23 -2,-47 -7,-69 63,-19 187,-65 297,-156l-184 743zm-1563 768c31,11 63,9 84,-3 25,10 52,18 79,24 -19,69 -311,83 -311,-151 0,0 30,25 80,54 -3,30 25,62 68,76zm374 705l0 0c26,17 50,26 70,29l0 93c-55,37 -164,85 -327,55 -127,-23 -232,6 -288,72 -6,-26 -4,-49 -4,-49 -40,-364 549,-200 549,-200zm772 249c-57,-66 -162,-95 -289,-72 -163,30 -271,-18 -327,-55l0 -93c20,-3 45,-12 70,-29l0 0c0,0 590,-164 549,200 0,0 2,23 -3,49zm-1493 -1472l0 -274c157,-37 415,-70 834,-70 842,0 1034,135 1065,163l0 261c-103,-59 -373,-148 -1065,-148 -406,0 -667,31 -834,68zm-110 30l0 -272c18,-7 39,-13 62,-19l0 273c-23,6 -44,12 -62,18zm42 51c147,-43 416,-88 902,-88 486,0 755,45 902,88 35,106 121,416 -4,597 -146,213 -248,217 -158,376 0,0 -24,-70 39,-132 0,0 119,220 -39,383 0,0 -58,-230 -451,-165 30,-21 61,-53 87,-105 0,0 58,-53 187,-17 0,0 -64,-64 -202,-47 0,0 -66,-125 -186,-101 0,0 -76,-85 -97,-233 0,0 6,174 53,272 0,0 -36,33 -39,95 0,0 24,-59 69,-83 0,0 118,-25 146,83 28,107 -138,150 -167,130 0,0 -35,85 -140,86 -105,-1 -139,-86 -139,-86 -29,20 -196,-23 -168,-130 28,-108 147,-83 147,-83 44,24 69,83 69,83 -3,-62 -39,-95 -39,-95 3,-7 6,-14 9,-21 137,-329 -37,-375 -37,-375 66,-27 72,-106 72,-106 -243,118 -393,-278 -626,-233 -196,37 -186,252 -186,252 84,-127 219,-54 219,-54 11,312 288,253 288,253 -80,45 -164,32 -164,32 247,110 370,-105 370,-105 145,37 -15,290 -15,290 -138,9 -176,93 -176,93 -129,4 -186,83 -186,83 66,-18 113,-13 144,-4 11,27 33,78 60,102 0,0 -317,-39 -408,158 -117,-159 -12,-352 -12,-352 63,62 38,132 38,132 91,-159 -11,-163 -158,-376 -124,-181 -39,-491 -4,-597zm2222 690c0,0 -101,-109 -223,-159 0,0 328,528 164,940 0,0 -15,-168 -231,-365 0,0 259,656 -154,996 -4,-102 -35,-227 -104,-378 0,0 251,673 -409,779 165,-261 90,-590 90,-590 -27,717 -453,746 -453,746 0,0 -426,-29 -453,-746 0,0 -1,4 -2,12 0,-5 1,-9 2,-12 0,0 -106,272 -22,511 0,0 -152,-10 -257,-123 -145,-203 -68,-488 -45,-560 1,-6 3,-11 5,-17 0,0 -128,90 -160,230 0,0 -28,-13 -63,-45 -51,-48 -84,-111 -97,-177 -62,-301 56,-610 62,-626 0,0 0,0 0,0 0,0 -156,84 -221,243 0,0 -48,-409 93,-723 27,-55 46,-87 46,-87 -122,49 -208,151 -208,151 8,-94 26,-292 176,-454 -119,188 -79,328 -79,328 75,-66 172,-89 172,-89 -123,273 -50,440 -50,440 30,-128 130,-177 130,-177 18,68 73,88 73,88 -119,437 144,566 144,566 -20,186 91,269 91,269 0,0 -57,-201 101,-273 112,-51 265,8 405,-21 46,20 170,60 335,3 134,21 278,-31 385,18 157,72 100,273 100,273 41,-80 49,-151 31,-207 11,-19 25,-54 28,-115 0,0 246,-154 106,-534 0,0 81,-45 136,-167 41,49 115,152 138,277 0,0 18,-205 -109,-360 23,-86 32,-197 9,-339 125,90 170,241 170,241 21,-156 -121,-314 -121,-314 17,-2 33,1 47,7 97,136 205,331 222,540zm-2508 -1712c18,12 36,22 54,32l165 610c-17,6 -33,12 -46,18l-173 -660zm586 211c46,51 5,147 5,147 65,-18 97,-65 113,-110 5,17 4,37 -5,61 -27,69 -112,109 -174,109 -75,0 -141,-36 -184,-93 72,-44 155,-83 245,-114zm1305 39c3,1 5,3 7,4 -11,31 -42,84 -131,93 0,0 76,59 160,36 -15,20 -40,35 -73,35 -1,0 -2,0 -2,0 -130,0 -235,-109 -235,-245 0,-4 0,-8 0,-13 99,23 191,54 274,90zm426 836l0 -323 271 -1082 -103 130c-134,169 -346,226 -387,236l-38 9 12 35c9,26 14,54 14,82 0,33 -6,64 -17,92 -1,-1 -1,-1 -2,-1 -127,-76 -275,-134 -437,-171 14,-42 39,-80 72,-109l43 -36 -54 -20c-262,-100 -469,-476 -471,-480l-32 -59 -32 59c-2,4 -208,379 -471,480l-53 20 42 36c34,29 59,67 73,109 -162,37 -311,95 -437,171 -1,0 -2,0 -3,1 -11,-28 -17,-59 -17,-92 0,-28 5,-56 14,-82l12 -35 -37 -9c-41,-10 -253,-67 -388,-236l-103 -130 271 1082 0 323c0,12 8,24 19,29 -333,313 -275,777 -275,777 44,-116 192,-220 192,-220 -409,532 -38,1011 -38,1011 -4,-123 44,-241 79,-311 -181,506 183,798 283,867 58,327 443,361 566,364 70,78 168,144 303,186 136,-42 233,-108 303,-186 123,-3 508,-37 567,-364 99,-69 463,-361 283,-867 35,70 82,188 79,311 0,0 370,-479 -39,-1011 0,0 148,104 193,220 0,0 58,-464 -276,-777 12,-5 19,-17 19,-29z"/>
    <path class="fil6" d="M1068 3186c0,0 132,372 504,266 0,0 -134,-5 -214,-76 0,0 249,16 400,-190 0,0 -359,231 -690,0z"/>
    <path class="fil0" d="M1433 1084l0 -806c0,0 153,230 325,316 0,0 -140,252 50,435 189,184 433,55 433,55 0,0 183,-73 170,-345 0,0 134,-42 187,-93l-155 597c0,0 -463,-125 -1010,-118l0 -41z"/>
    <path class="fil0" d="M895 1096c0,0 170,-55 198,-240 0,0 120,22 146,-68l76 67 46 253c0,0 -257,-21 -617,55 0,0 110,-33 151,-67z"/>
    <path class="fil0" d="M905 1254c-16,1 -32,3 -48,5l0 222c16,-1 32,-3 48,-4l0 -223z"/>
    <path class="fil0" d="M2230 1304c-196,-46 -476,-70 -830,-70 -162,0 -308,5 -438,15l0 223c131,-9 277,-14 438,-14 479,0 762,42 929,91l0 -217c-27,-9 -60,-18 -99,-28z"/>
    <path class="fil2" d="M2244 1323l0 194c15,4 31,8 46,13l0 -192c-15,-5 -30,-10 -46,-15z"/>
    <path class="fil2" d="M2035 1277l0 199c54,7 105,17 151,27l0 -195c-46,-12 -96,-22 -151,-31z"/>
    <path class="fil0" d="M2386 1354l0 213c19,7 36,14 51,21l0 -205c-9,-7 -25,-17 -51,-29z"/>
    <path class="fil2" d="M2437 754c0,0 75,-12 131,-55l-138 509 64 -437c0,0 -38,1 -57,-17z"/>
    <path class="fil2" d="M1468 997l0 -624c0,0 101,173 239,224 0,0 -99,2 -178,-40l-61 440z"/>
    <path class="fil7" d="M620 2016c0,0 31,249 300,276 0,0 131,9 198,-33 0,0 11,90 -28,115 0,0 -128,17 -143,62 0,0 -129,-16 -159,62 0,0 -71,-67 -71,-126 0,0 -149,-127 -166,-265 0,0 28,-79 69,-91z"/>
    <path class="fil7" d="M977 1722c0,0 141,239 345,171 0,0 82,57 52,159l26 28 0 484c0,0 -28,25 -63,22 0,0 8,82 -39,99 0,0 100,122 211,10 0,0 18,-33 10,-59 0,0 56,52 131,8 75,-44 6,-129 6,-129 0,0 -30,-23 -75,-17 0,0 -64,17 -89,87 0,0 -33,-51 5,-124 0,0 -77,-227 -32,-400 0,0 -48,-92 -10,-146 0,0 167,63 269,-53 103,-117 237,-200 352,-198l0 -32c0,0 -495,-83 -1114,-24l0 95 15 19z"/>
    <path class="fil7" d="M2170 1981c0,0 -113,471 -569,219 0,0 4,131 33,165 0,0 126,17 161,89 0,0 138,-4 230,151 0,0 -140,-27 -217,0 0,0 -8,37 -22,45 0,0 278,-17 362,114 0,0 63,-106 33,-188 0,0 -16,68 -42,79 0,0 -114,-120 -41,-247 74,-127 225,-205 174,-361l-102 -66z"/>
    <path class="fil8" d="M2527 2320c0,0 161,320 133,637 0,0 -135,-270 -296,-389 0,0 161,35 220,130 0,0 -3,-216 -57,-378z"/>
    <path class="fil8" d="M2340 2699c0,0 125,329 112,682 0,0 -42,-190 -88,-259 0,0 44,216 32,374 0,0 -41,105 -78,130 0,0 -42,-279 -138,-397 0,0 69,-128 32,-240 0,0 128,-140 128,-290z"/>
    <path class="fil8" d="M1670 3372c0,0 174,-63 213,-186 0,0 79,3 99,-23 0,0 43,113 23,280 0,0 75,-25 98,-74 0,0 117,466 -216,666 0,0 123,-427 -52,-606 0,0 -99,24 -165,-57z"/>
    <path class="fil8" d="M1703 2764c0,0 103,-10 184,13l10 92 25 -83c0,0 80,28 107,102l-8 80c0,0 -38,-43 -124,-50 -87,-7 -144,23 -194,4l0 -158z"/>
    <path class="fil8" d="M1241 3186c0,0 266,29 360,-83 0,0 44,63 113,43 0,0 -227,169 -473,40z"/>
    <path class="fil8" d="M1801 3493c-13,113 -82,257 -82,257 21,-113 8,-243 8,-243 -18,6 -64,11 -64,11 -19,65 -115,100 -115,100l-61 265 -4 -272c69,-20 93,-82 93,-82 -56,30 -163,29 -163,29 0,0 -90,1 -144,-23 0,0 40,66 109,85l-17 383c0,0 -144,-93 -177,-250 0,0 -16,357 229,475 73,-4 151,-69 151,-69 71,-82 106,-409 106,-409 29,99 0,257 0,257 134,-189 131,-514 131,-514z"/>
   </g>
   <path class="fil9" d="M3238 2797l218 0c36,116 95,207 179,272 83,66 181,98 293,98 68,0 123,-14 164,-43 40,-29 61,-67 61,-113 0,-72 -89,-133 -267,-182 -58,-15 -103,-28 -136,-38 -107,-32 -189,-60 -247,-82 -58,-23 -99,-44 -125,-64 -61,-45 -106,-95 -134,-150 -29,-55 -44,-118 -44,-188 0,-151 56,-273 169,-366 112,-92 260,-139 444,-139 94,0 182,9 263,28 81,18 160,46 236,84l40 -76 217 0 0 522 -254 0c-25,-106 -72,-185 -141,-238 -68,-51 -160,-78 -275,-78 -67,0 -123,16 -166,46 -44,31 -65,68 -65,113 0,67 83,118 250,152 41,9 73,15 96,21 232,53 395,119 489,198 93,80 140,187 140,324 0,151 -57,273 -173,363 -115,90 -270,135 -465,135 -89,0 -176,-10 -258,-31 -83,-19 -164,-50 -246,-91l-56 84 -207 0 0 -561zm2291 -145l-137 -456 -128 456 265 0zm-57 699l0 -213 68 0c58,0 92,-3 105,-9 13,-7 19,-18 19,-36 0,-12 0,-23 -2,-33 -2,-11 -5,-21 -7,-32l-54 -161 -406 0 -47 144c-9,22 -14,39 -17,51 -3,13 -4,24 -4,34 0,14 9,24 27,31 18,7 44,11 78,11l74 0 0 213 -674 0 0 -213 56 0c38,0 70,-12 96,-36 26,-25 49,-64 68,-119l396 -1136 546 0 353 1132c25,75 46,120 66,135 20,16 52,24 96,24l79 0 0 213 -916 0zm1257 -1268c-82,0 -146,28 -189,83 -44,56 -66,137 -66,244l0 6 -223 0 0 -569 1587 0 0 569 -220 0 0 -6c0,-106 -22,-187 -66,-243 -45,-56 -109,-84 -192,-84l-66 0 0 926c0,57 8,94 23,108 15,14 50,21 103,21l126 0 0 213 -991 0 0 -213 116 0c51,0 84,-6 100,-18 16,-12 24,-49 24,-111l0 -926 -66 0zm1675 0c-82,0 -146,28 -190,83 -43,56 -65,137 -65,244l0 6 -223 0 0 -569 1587 0 0 569 -220 0 0 -6c0,-106 -22,-187 -67,-243 -44,-56 -108,-84 -191,-84l-66 0 0 926c0,57 8,94 23,108 15,14 50,21 103,21l126 0 0 213 -991 0 0 -213 116 0c51,0 84,-6 100,-18 16,-12 24,-49 24,-111l0 -926 -66 0zm1859 569l-137 -456 -129 456 266 0zm-57 699l0 -213 68 0c57,0 92,-3 105,-9 12,-7 19,-18 19,-36 0,-12 -1,-23 -3,-33 -2,-11 -4,-21 -7,-32l-54 -161 -406 0 -47 144c-8,22 -14,39 -16,51 -3,13 -5,24 -5,34 0,14 9,24 28,31 18,7 44,11 77,11l75 0 0 213 -674 0 0 -213 56 0c38,0 70,-12 96,-36 26,-25 48,-64 67,-119l397 -1136 545 0 354 1132c24,75 46,120 66,135 19,16 51,24 95,24l79 0 0 213 -915 0zm927 -347l0 -357 657 0 0 357 -657 0zm1598 -1157l0 213 -13 0c-49,0 -81,6 -96,19 -16,12 -23,49 -23,109l0 372 486 -400c13,-11 22,-21 28,-31 6,-10 9,-20 9,-30 0,-14 -7,-24 -21,-30 -14,-6 -36,-9 -66,-9l-127 0 0 -213 841 0 0 213 -76 0c-27,0 -59,9 -95,28 -37,20 -76,47 -119,83l-304 259 408 607c24,37 49,63 73,78 25,15 55,23 89,23l92 0 0 213 -933 0 0 -213 72 0c37,0 64,-3 80,-10 17,-6 25,-17 25,-31 0,-11 -2,-21 -5,-30 -3,-9 -7,-17 -13,-25l-220 -334 -227 175 0 126c0,58 8,94 23,108 15,14 48,21 99,21l49 0 0 213 -861 0 0 -213 76 0c53,0 87,-7 102,-21 15,-14 22,-50 22,-108l0 -821c0,-58 -7,-94 -22,-108 -14,-13 -48,-20 -102,-20l-76 0 0 -213 825 0zm1996 0l0 213 -74 0c-54,0 -88,7 -103,21 -15,15 -23,50 -23,107l0 821c0,58 8,94 23,108 16,14 50,21 103,21l74 0 0 213 -897 0 0 -213 75 0c53,0 87,-7 102,-21 16,-14 23,-50 23,-108l0 -821c0,-57 -7,-92 -22,-107 -15,-14 -49,-21 -103,-21l-75 0 0 -213 897 0zm828 0l554 1013 0 -672c0,-60 -7,-97 -23,-109 -16,-13 -49,-19 -100,-19l-86 0 0 -213 664 0 0 213 -54 0c-53,0 -86,7 -101,20 -15,14 -23,50 -23,108l0 1163 -517 0 -587 -1078 0 736c0,58 8,94 23,108 15,14 49,21 101,21l67 0 0 213 -665 0 0 -213 74 0c53,0 88,-7 103,-21 15,-14 23,-50 23,-108l0 -821c0,-57 -7,-92 -22,-107 -15,-14 -50,-21 -104,-21l-74 0 0 -213 747 0zm1986 917l0 -213 834 0 0 213 -53 0c-53,0 -86,6 -102,18 -15,13 -22,49 -22,110l0 474 -275 0 -49 -92c-75,43 -149,74 -224,95 -75,21 -149,31 -223,31 -233,0 -417,-71 -552,-213 -134,-142 -201,-338 -201,-587 0,-240 72,-433 216,-580 144,-147 335,-220 572,-220 82,0 156,9 223,26 66,18 127,45 183,81l36 -83 240 0 0 619 -263 0c-25,-144 -64,-249 -117,-314 -52,-65 -124,-98 -214,-98 -102,0 -177,44 -223,133 -46,88 -69,233 -69,432 0,201 23,347 69,437 46,89 120,134 221,134 66,0 110,-10 133,-30 24,-20 36,-64 36,-130l0 -115c0,-57 -8,-93 -23,-107 -15,-14 -49,-21 -103,-21l-50 0zm1022 240l0 -357 657 0 0 357 -657 0zm2306 -1157l0 616 -245 0c-4,-73 -12,-134 -24,-180 -11,-47 -27,-87 -48,-119 -26,-38 -59,-65 -100,-80 -40,-16 -118,-24 -232,-24l-194 0 0 412 58 0c68,0 116,-16 144,-49 27,-33 41,-91 41,-175l0 -13 189 0 0 686 -189 0c-3,-105 -17,-173 -41,-204 -25,-32 -72,-47 -141,-47l-61 0 0 338c0,63 8,100 24,112 15,12 49,18 99,18l84 0 0 213 -897 0 0 -213 76 0c50,0 83,-6 98,-18 16,-11 24,-45 24,-100l0 -12 0 -820c0,-58 -8,-94 -22,-108 -15,-13 -49,-20 -102,-20l-74 0 0 -213 1533 0zm667 805l-137 -456 -129 456 266 0zm-57 699l0 -213 68 0c57,0 92,-3 105,-9 12,-7 19,-18 19,-36 0,-12 -1,-23 -3,-33 -2,-11 -4,-21 -7,-32l-54 -161 -406 0 -47 144c-8,22 -14,39 -16,51 -3,13 -5,24 -5,34 0,14 9,24 28,31 18,7 44,11 77,11l75 0 0 213 -674 0 0 -213 55 0c39,0 71,-12 97,-36 26,-25 48,-64 67,-119l397 -1136 545 0 354 1132c24,75 46,120 66,135 19,16 51,24 95,24l79 0 0 213 -915 0zm935 -554l218 0c36,116 95,207 179,272 83,66 180,98 293,98 68,0 123,-14 164,-43 41,-29 61,-67 61,-113 0,-72 -89,-133 -267,-182 -58,-15 -103,-28 -136,-38 -107,-32 -189,-60 -247,-82 -58,-23 -100,-44 -125,-64 -61,-45 -106,-95 -134,-150 -29,-55 -44,-118 -44,-188 0,-151 56,-273 169,-366 112,-92 260,-139 444,-139 94,0 182,9 263,28 81,18 160,46 236,84l40 -76 217 0 0 522 -254 0c-25,-106 -72,-185 -141,-238 -68,-51 -160,-78 -275,-78 -67,0 -123,16 -166,46 -44,31 -65,68 -65,113 0,67 83,118 250,152 41,9 73,15 96,21 232,53 395,119 489,198 93,80 140,187 140,324 0,151 -58,273 -173,363 -115,90 -270,135 -465,135 -90,0 -176,-10 -258,-31 -83,-19 -165,-50 -246,-91l-56 84 -207 0 0 -561zm1985 -714c-83,0 -146,28 -190,83 -44,56 -66,137 -66,244l0 6 -223 0 0 -569 1587 0 0 569 -220 0 0 -6c0,-106 -22,-187 -66,-243 -44,-56 -108,-84 -192,-84l-66 0 0 926c0,57 8,94 23,108 16,14 50,21 103,21l126 0 0 213 -991 0 0 -213 117 0c50,0 83,-6 99,-18 17,-12 24,-49 24,-111l0 -926 -65 0zm1259 1155c0,-38 13,-70 40,-97 26,-26 59,-40 98,-40 39,0 71,14 98,40 26,27 39,59 39,97 0,39 -13,72 -39,99 -27,26 -59,39 -98,39 -39,0 -72,-13 -98,-39 -27,-27 -40,-60 -40,-99zm1137 -132c-3,88 -32,156 -89,203 -55,47 -135,70 -237,70 -122,0 -218,-34 -290,-103 -72,-69 -108,-162 -108,-277 0,-117 37,-210 110,-278 72,-68 171,-102 296,-102 98,0 175,22 233,66 58,44 87,103 87,174 0,49 -14,86 -42,112 -28,26 -67,39 -119,39 -41,0 -74,-10 -98,-31 -25,-21 -37,-49 -37,-85 0,-31 9,-55 26,-73 16,-19 39,-29 69,-30 -8,-13 -18,-22 -29,-28 -12,-5 -26,-8 -44,-8 -48,0 -82,18 -101,53 -20,36 -30,99 -30,191 0,86 9,148 28,185 18,36 48,55 89,55 32,0 57,-12 76,-35 18,-24 28,-56 29,-98l181 0zm499 -487c133,0 238,34 315,102 78,68 116,161 116,278 0,116 -38,209 -115,276 -77,67 -182,101 -315,101 -134,0 -239,-33 -315,-100 -75,-67 -113,-160 -113,-277 0,-118 38,-211 113,-279 76,-67 181,-101 314,-101zm112 380c0,-91 -8,-154 -25,-189 -17,-35 -46,-52 -87,-52 -40,0 -68,17 -85,52 -16,35 -25,98 -25,189 0,91 9,153 26,188 17,35 46,52 87,52 40,0 68,-17 85,-52 16,-34 24,-97 24,-188zm765 -265c37,-39 76,-68 118,-87 42,-19 89,-28 140,-28 46,0 86,8 119,23 32,16 59,39 80,71 35,-31 72,-54 112,-70 41,-16 83,-24 126,-24 89,0 152,19 190,58 37,40 56,107 56,203l0 270c0,28 4,47 14,56 9,9 28,13 57,13l17 0 0 132 -446 0 0 -132c26,0 42,-5 51,-14 8,-8 11,-27 11,-55l0 -255c0,-43 -5,-74 -17,-92 -12,-18 -32,-27 -61,-27 -32,0 -55,13 -71,39 -15,26 -23,67 -23,122l0 213c0,29 3,47 10,56 7,9 19,13 39,13l16 0 0 132 -421 0 0 -132 14 0c19,0 32,-4 39,-13 6,-10 10,-28 10,-56l0 -255c0,-43 -6,-74 -19,-92 -12,-18 -32,-27 -61,-27 -32,0 -55,13 -70,39 -15,27 -23,68 -23,125l0 210c0,27 4,46 13,55 8,10 24,14 47,14l6 0 0 132 -457 0 0 -132 26 0c28,0 48,-4 56,-13 9,-9 14,-28 14,-56l0 -303c0,-29 -5,-48 -14,-57 -8,-8 -28,-13 -56,-13l-26 0 0 -131 384 0 0 88z"/>
  </g>
 </g>
</svg>
